<svg xmlns="http://www.w3.org/2000/svg" xmlns:xlink="http://www.w3.org/1999/xlink" width="500" zoomAndPan="magnify" viewBox="0 0 375 374.999991" height="500" preserveAspectRatio="xMidYMid meet" version="1.0"><defs><g/><clipPath id="fbc81700ec"><path d="M 135.277344 124.46875 L 262.859375 124.46875 L 262.859375 209.996094 L 135.277344 209.996094 Z M 135.277344 124.46875 " clip-rule="nonzero"/></clipPath><clipPath id="3f786086d6"><path d="M 87.320312 89.234375 L 287.691406 89.234375 L 287.691406 97.113281 L 87.320312 97.113281 Z M 87.320312 89.234375 " clip-rule="nonzero"/></clipPath><clipPath id="b6a012c92e"><path d="M 254.519531 89.234375 L 120.480469 89.234375 L 87.320312 93.171875 L 120.480469 97.113281 L 254.519531 97.113281 L 287.679688 93.171875 Z M 254.519531 89.234375 " clip-rule="nonzero"/></clipPath><clipPath id="5a30cfa03e"><path d="M 99.386719 244.488281 L 287.679688 244.488281 L 287.679688 260.457031 L 99.386719 260.457031 Z M 99.386719 244.488281 " clip-rule="nonzero"/></clipPath><clipPath id="b7f8add6dd"><path d="M 193.535156 260.457031 L 99.390625 244.488281 L 287.679688 244.488281 Z M 193.535156 260.457031 " clip-rule="nonzero"/></clipPath></defs><rect x="-37.5" width="450" fill="#ffffff" y="-37.499999" height="449.999989" fill-opacity="1"/><rect x="-37.5" width="450" fill="#ffffff" y="-37.499999" height="449.999989" fill-opacity="1"/><g fill="#ff914d" fill-opacity="1"><g transform="translate(57.973551, 238.314388)"><g><path d="M 148 -68 C 148 -54.53125 145.128906 -42.660156 139.390625 -32.390625 C 133.660156 -22.128906 125.5625 -14.164062 115.09375 -8.5 C 104.632812 -2.832031 92.535156 0 78.796875 0 L 2 0 L 2 -4.40625 C 7.332031 -4.53125 11.332031 -5.0625 14 -6 C 16.664062 -6.9375 18.460938 -8.4375 19.390625 -10.5 C 20.328125 -12.5625 20.796875 -15.59375 20.796875 -19.59375 L 20.796875 -119 C 20.796875 -123.53125 20.296875 -126.660156 19.296875 -128.390625 C 18.296875 -130.128906 16.660156 -131.195312 14.390625 -131.59375 C 12.128906 -132 8 -132.269531 2 -132.40625 L 2 -136.796875 L 81.203125 -136.796875 C 92.398438 -136.796875 103.097656 -134.226562 113.296875 -129.09375 C 123.492188 -123.96875 131.828125 -116.203125 138.296875 -105.796875 C 144.765625 -95.398438 148 -82.800781 148 -68 Z M 70 -9 C 81.332031 -9 89.566406 -13.5 94.703125 -22.5 C 99.835938 -31.5 102.40625 -45.265625 102.40625 -63.796875 C 102.40625 -86.460938 99.570312 -102.925781 93.90625 -113.1875 C 88.238281 -123.457031 79.335938 -128.59375 67.203125 -128.59375 L 61.40625 -128.59375 L 61.40625 -19 C 61.40625 -15 62.070312 -12.332031 63.40625 -11 C 64.738281 -9.664062 66.9375 -9 70 -9 Z M 70 -9 "/></g></g></g><g fill="#ff914d" fill-opacity="1"><g transform="translate(195.059478, 238.314388)"><g><path d="M 126 -101.40625 C 126 -95 123.734375 -89.160156 119.203125 -83.890625 C 114.671875 -78.628906 107.671875 -74.398438 98.203125 -71.203125 L 98.203125 -70.796875 C 108.597656 -67.992188 116.394531 -63.625 121.59375 -57.6875 C 126.800781 -51.757812 129.40625 -44.597656 129.40625 -36.203125 C 129.40625 -25.265625 125.171875 -16.492188 116.703125 -9.890625 C 108.234375 -3.296875 96.53125 0 81.59375 0 L 3.796875 0 L 3.796875 -4.40625 C 8.328125 -4.53125 11.757812 -4.957031 14.09375 -5.6875 C 16.425781 -6.425781 18.0625 -7.796875 19 -9.796875 C 19.9375 -11.796875 20.40625 -14.796875 20.40625 -18.796875 L 20.40625 -116.796875 C 20.40625 -121.328125 19.800781 -124.691406 18.59375 -126.890625 C 17.394531 -129.097656 15.660156 -130.535156 13.390625 -131.203125 C 11.128906 -131.867188 7.929688 -132.269531 3.796875 -132.40625 L 3.796875 -136.796875 L 83 -136.796875 C 89.800781 -136.796875 96.535156 -135.226562 103.203125 -132.09375 C 109.867188 -128.96875 115.332031 -124.671875 119.59375 -119.203125 C 123.863281 -113.734375 126 -107.800781 126 -101.40625 Z M 83.796875 -101.796875 C 83.796875 -108.597656 82.09375 -114.628906 78.6875 -119.890625 C 75.289062 -125.160156 69.925781 -127.796875 62.59375 -127.796875 L 61 -127.796875 L 61 -74.203125 C 67.9375 -74.734375 73.46875 -77.5 77.59375 -82.5 C 81.726562 -87.5 83.796875 -93.929688 83.796875 -101.796875 Z M 69.796875 -7.203125 C 74.734375 -7.203125 78.765625 -9.867188 81.890625 -15.203125 C 85.023438 -20.535156 86.59375 -27.332031 86.59375 -35.59375 C 86.59375 -55.59375 78.0625 -65.796875 61 -66.203125 L 61 -17.40625 C 61 -14.195312 61.765625 -11.691406 63.296875 -9.890625 C 64.828125 -8.097656 66.992188 -7.203125 69.796875 -7.203125 Z M 69.796875 -7.203125 "/></g></g></g><g clip-path="url(#fbc81700ec)"><path fill="#ffffff" d="M 135.277344 124.46875 L 262.902344 124.46875 L 262.902344 209.996094 L 135.277344 209.996094 Z M 135.277344 124.46875 " fill-opacity="1" fill-rule="nonzero"/></g><g clip-path="url(#3f786086d6)"><g clip-path="url(#b6a012c92e)"><path fill="#5e17eb" d="M 87.320312 89.234375 L 287.691406 89.234375 L 287.691406 97.113281 L 87.320312 97.113281 Z M 87.320312 89.234375 " fill-opacity="1" fill-rule="nonzero"/></g></g><g clip-path="url(#5a30cfa03e)"><g clip-path="url(#b7f8add6dd)"><path fill="#5e17eb" d="M 287.679688 260.457031 L 99.386719 260.457031 L 99.386719 244.488281 L 287.679688 244.488281 Z M 287.679688 260.457031 " fill-opacity="1" fill-rule="nonzero"/></g></g><g fill="#5e17eb" fill-opacity="1"><g transform="translate(127.506749, 187.871472)"><g><path d="M 7.871094 -21.835938 L 6.09375 -23.667969 L 0.539062 -18.117188 L 6.09375 -12.507812 L 7.871094 -14.34375 L 4.152344 -18.117188 Z M 7.871094 -21.835938 "/></g></g></g><g fill="#5e17eb" fill-opacity="1"><g transform="translate(135.916131, 187.871472)"><g><path d="M 12.671875 -31.703125 L 0.539062 -3.988281 L 3.074219 -3.988281 L 15.203125 -31.703125 Z M 12.671875 -31.703125 "/></g></g></g><g fill="#5e17eb" fill-opacity="1"><g transform="translate(151.65678, 187.871472)"><g><path d="M 13.640625 -21.191406 C 12.992188 -21.082031 12.507812 -20.273438 12.507812 -19.410156 C 17.523438 -19.410156 22.160156 -17.738281 22.160156 -10.082031 C 22.160156 -2.371094 16.820312 -1.941406 13.480469 -1.941406 C 8.625 -1.941406 5.066406 -5.660156 4.582031 -9.976562 L 0.539062 -5.605469 C 3.398438 -1.402344 9.757812 0 13.804688 0 C 20.488281 0 28.46875 -1.457031 28.46875 -10.621094 C 28.46875 -16.605469 24.53125 -19.894531 18.761719 -20.433594 C 22.644531 -21.191406 25.125 -23.667969 25.125 -27.765625 C 25.125 -34.992188 19.140625 -36.125 14.125 -36.125 C 11.105469 -36.125 6.308594 -34.992188 4.152344 -31.703125 L 7.226562 -28.253906 C 7.546875 -31.648438 10.246094 -34.613281 13.855469 -34.613281 C 16.335938 -34.613281 20.378906 -34.238281 20.378906 -28.144531 C 20.378906 -23.507812 14.613281 -21.40625 13.640625 -21.191406 Z M 13.640625 -21.191406 "/></g></g></g><g fill="#5e17eb" fill-opacity="1"><g transform="translate(180.658384, 187.871472)"><g><path d="M 14.988281 -27.605469 C 12.5625 -27.605469 10.515625 -27.28125 8.734375 -26.636719 C 11.054688 -33.644531 15.203125 -35.421875 18.332031 -36.179688 C 6.632812 -35.910156 0.539062 -24.046875 0.539062 -15.421875 C 0.539062 -6.847656 4.582031 0 14.988281 0 C 25.394531 0 29.601562 -6.199219 29.601562 -13.804688 C 29.601562 -21.40625 25.394531 -27.605469 14.988281 -27.605469 Z M 14.988281 -1.617188 C 8.464844 -1.617188 7.0625 -6.6875 6.957031 -13.101562 C 6.792969 -23.617188 10.730469 -26.582031 14.988281 -26.582031 C 21.835938 -26.582031 23.183594 -20.972656 23.183594 -14.125 C 23.183594 -7.226562 21.835938 -1.617188 14.988281 -1.617188 Z M 14.988281 -1.617188 "/></g></g></g><g fill="#5e17eb" fill-opacity="1"><g transform="translate(210.792015, 187.871472)"><g><path d="M 14.394531 -36.070312 C 4.042969 -36.070312 0.539062 -27.984375 0.539062 -18.007812 C 0.539062 -8.085938 4.042969 0.0546875 14.394531 0.0546875 C 24.800781 0.0546875 28.46875 -8.085938 28.46875 -18.007812 C 28.46875 -27.984375 24.800781 -36.070312 14.394531 -36.070312 Z M 14.394531 -2.101562 C 7.601562 -2.101562 6.957031 -9.382812 6.957031 -18.386719 C 6.957031 -27.390625 7.601562 -34.722656 14.394531 -34.722656 C 21.242188 -34.722656 22 -27.390625 22 -18.386719 C 22 -9.382812 21.242188 -2.101562 14.394531 -2.101562 Z M 14.394531 -2.101562 "/></g></g></g><g fill="#5e17eb" fill-opacity="1"><g transform="translate(239.793619, 187.871472)"><g><path d="M 7.171875 -44.265625 C 3.503906 -44.265625 0.539062 -41.300781 0.539062 -37.632812 C 0.539062 -33.96875 3.503906 -30.949219 7.171875 -30.949219 C 10.835938 -30.949219 13.855469 -33.96875 13.855469 -37.632812 C 13.855469 -41.300781 10.835938 -44.265625 7.171875 -44.265625 Z M 7.171875 -34.238281 C 5.285156 -34.238281 3.773438 -35.746094 3.773438 -37.632812 C 3.773438 -39.46875 5.285156 -41.03125 7.171875 -41.03125 C 9.058594 -41.03125 10.566406 -39.46875 10.566406 -37.632812 C 10.566406 -35.746094 9.058594 -34.238281 7.171875 -34.238281 Z M 7.171875 -34.238281 "/></g></g></g><g fill="#5e17eb" fill-opacity="1"><g transform="translate(254.1866, 187.871472)"><g><path d="M 2.320312 -23.667969 L 0.539062 -21.835938 L 4.257812 -18.117188 L 0.539062 -14.34375 L 2.320312 -12.507812 L 7.871094 -18.117188 Z M 2.320312 -23.667969 "/></g></g></g></svg>