<svg xmlns="http://www.w3.org/2000/svg" xmlns:xlink="http://www.w3.org/1999/xlink" width="500" zoomAndPan="magnify" viewBox="0 0 375 374.999991" height="500" preserveAspectRatio="xMidYMid meet" version="1.0"><defs><g/><clipPath id="d216451736"><path d="M 135.277344 124.46875 L 257.980469 124.46875 L 257.980469 209.996094 L 135.277344 209.996094 Z M 135.277344 124.46875 " clip-rule="nonzero"/></clipPath><clipPath id="150c546cef"><path d="M 125.820312 89.808594 L 258 89.808594 L 258 100.113281 L 125.820312 100.113281 Z M 125.820312 89.808594 " clip-rule="nonzero"/></clipPath><clipPath id="6371eb4c34"><path d="M 224.820312 89.808594 L 158.980469 89.808594 L 125.820312 94.960938 L 158.980469 100.113281 L 224.820312 100.113281 L 257.980469 94.960938 Z M 224.820312 89.808594 " clip-rule="nonzero"/></clipPath><clipPath id="7ab3390947"><path d="M 125.769531 241.484375 L 257.972656 241.484375 L 257.972656 256.535156 L 125.769531 256.535156 Z M 125.769531 241.484375 " clip-rule="nonzero"/></clipPath><clipPath id="87244eb735"><path d="M 191.890625 256.535156 L 125.8125 241.484375 L 257.972656 241.484375 Z M 191.890625 256.535156 " clip-rule="nonzero"/></clipPath></defs><rect x="-37.5" width="450" fill="#ffffff" y="-37.499999" height="449.999989" fill-opacity="1"/><rect x="-37.5" width="450" fill="#ffffff" y="-37.499999" height="449.999989" fill-opacity="1"/><g fill="#ff914d" fill-opacity="1"><g transform="translate(63.973551, 238.314388)"><g><path d="M 148 -68 C 148 -54.53125 145.128906 -42.660156 139.390625 -32.390625 C 133.660156 -22.128906 125.5625 -14.164062 115.09375 -8.5 C 104.632812 -2.832031 92.535156 0 78.796875 0 L 2 0 L 2 -4.40625 C 7.332031 -4.53125 11.332031 -5.0625 14 -6 C 16.664062 -6.9375 18.460938 -8.4375 19.390625 -10.5 C 20.328125 -12.5625 20.796875 -15.59375 20.796875 -19.59375 L 20.796875 -119 C 20.796875 -123.53125 20.296875 -126.660156 19.296875 -128.390625 C 18.296875 -130.128906 16.660156 -131.195312 14.390625 -131.59375 C 12.128906 -132 8 -132.269531 2 -132.40625 L 2 -136.796875 L 81.203125 -136.796875 C 92.398438 -136.796875 103.097656 -134.226562 113.296875 -129.09375 C 123.492188 -123.96875 131.828125 -116.203125 138.296875 -105.796875 C 144.765625 -95.398438 148 -82.800781 148 -68 Z M 70 -9 C 81.332031 -9 89.566406 -13.5 94.703125 -22.5 C 99.835938 -31.5 102.40625 -45.265625 102.40625 -63.796875 C 102.40625 -86.460938 99.570312 -102.925781 93.90625 -113.1875 C 88.238281 -123.457031 79.335938 -128.59375 67.203125 -128.59375 L 61.40625 -128.59375 L 61.40625 -19 C 61.40625 -15 62.070312 -12.332031 63.40625 -11 C 64.738281 -9.664062 66.9375 -9 70 -9 Z M 70 -9 "/></g></g></g><g fill="#ff914d" fill-opacity="1"><g transform="translate(190.181433, 238.314388)"><g><path d="M 126 -101.40625 C 126 -95 123.734375 -89.160156 119.203125 -83.890625 C 114.671875 -78.628906 107.671875 -74.398438 98.203125 -71.203125 L 98.203125 -70.796875 C 108.597656 -67.992188 116.394531 -63.625 121.59375 -57.6875 C 126.800781 -51.757812 129.40625 -44.597656 129.40625 -36.203125 C 129.40625 -25.265625 125.171875 -16.492188 116.703125 -9.890625 C 108.234375 -3.296875 96.53125 0 81.59375 0 L 3.796875 0 L 3.796875 -4.40625 C 8.328125 -4.53125 11.757812 -4.957031 14.09375 -5.6875 C 16.425781 -6.425781 18.0625 -7.796875 19 -9.796875 C 19.9375 -11.796875 20.40625 -14.796875 20.40625 -18.796875 L 20.40625 -116.796875 C 20.40625 -121.328125 19.800781 -124.691406 18.59375 -126.890625 C 17.394531 -129.097656 15.660156 -130.535156 13.390625 -131.203125 C 11.128906 -131.867188 7.929688 -132.269531 3.796875 -132.40625 L 3.796875 -136.796875 L 83 -136.796875 C 89.800781 -136.796875 96.535156 -135.226562 103.203125 -132.09375 C 109.867188 -128.96875 115.332031 -124.671875 119.59375 -119.203125 C 123.863281 -113.734375 126 -107.800781 126 -101.40625 Z M 83.796875 -101.796875 C 83.796875 -108.597656 82.09375 -114.628906 78.6875 -119.890625 C 75.289062 -125.160156 69.925781 -127.796875 62.59375 -127.796875 L 61 -127.796875 L 61 -74.203125 C 67.9375 -74.734375 73.46875 -77.5 77.59375 -82.5 C 81.726562 -87.5 83.796875 -93.929688 83.796875 -101.796875 Z M 69.796875 -7.203125 C 74.734375 -7.203125 78.765625 -9.867188 81.890625 -15.203125 C 85.023438 -20.535156 86.59375 -27.332031 86.59375 -35.59375 C 86.59375 -55.59375 78.0625 -65.796875 61 -66.203125 L 61 -17.40625 C 61 -14.195312 61.765625 -11.691406 63.296875 -9.890625 C 64.828125 -8.097656 66.992188 -7.203125 69.796875 -7.203125 Z M 69.796875 -7.203125 "/></g></g></g><g clip-path="url(#d216451736)"><path fill="#ffffff" d="M 135.277344 124.46875 L 257.890625 124.46875 L 257.890625 209.996094 L 135.277344 209.996094 Z M 135.277344 124.46875 " fill-opacity="1" fill-rule="nonzero"/></g><g clip-path="url(#150c546cef)"><g clip-path="url(#6371eb4c34)"><path fill="#5e17eb" d="M 125.820312 89.808594 L 257.964844 89.808594 L 257.964844 100.113281 L 125.820312 100.113281 Z M 125.820312 89.808594 " fill-opacity="1" fill-rule="nonzero"/></g></g><g clip-path="url(#7ab3390947)"><g clip-path="url(#87244eb735)"><path fill="#5e17eb" d="M 257.972656 256.535156 L 125.828125 256.535156 L 125.828125 241.484375 L 257.972656 241.484375 Z M 257.972656 256.535156 " fill-opacity="1" fill-rule="nonzero"/></g></g><g fill="#5e17eb" fill-opacity="1"><g transform="translate(125.875522, 185.428728)"><g><path d="M 7.667969 -21.269531 L 5.933594 -23.054688 L 0.523438 -17.644531 L 5.933594 -12.183594 L 7.667969 -13.96875 L 4.042969 -17.644531 Z M 7.667969 -21.269531 "/></g></g></g><g fill="#5e17eb" fill-opacity="1"><g transform="translate(134.067351, 185.428728)"><g><path d="M 12.339844 -30.878906 L 0.523438 -3.886719 L 2.992188 -3.886719 L 14.808594 -30.878906 Z M 12.339844 -30.878906 "/></g></g></g><g fill="#5e17eb" fill-opacity="1"><g transform="translate(149.400785, 185.428728)"><g><path d="M 13.285156 -20.636719 C 12.65625 -20.535156 12.183594 -19.746094 12.183594 -18.90625 C 17.066406 -18.90625 21.582031 -17.277344 21.582031 -9.820312 C 21.582031 -2.3125 16.382812 -1.890625 13.128906 -1.890625 C 8.402344 -1.890625 4.9375 -5.515625 4.464844 -9.714844 L 0.523438 -5.460938 C 3.308594 -1.367188 9.503906 0 13.445312 0 C 19.957031 0 27.726562 -1.417969 27.726562 -10.34375 C 27.726562 -16.175781 23.894531 -19.378906 18.273438 -19.902344 C 22.054688 -20.636719 24.472656 -23.054688 24.472656 -27.046875 C 24.472656 -34.082031 18.644531 -35.183594 13.757812 -35.183594 C 10.816406 -35.183594 6.144531 -34.082031 4.042969 -30.878906 L 7.035156 -27.519531 C 7.351562 -30.828125 9.976562 -33.714844 13.496094 -33.714844 C 15.910156 -33.714844 19.851562 -33.347656 19.851562 -27.414062 C 19.851562 -22.898438 14.230469 -20.847656 13.285156 -20.636719 Z M 13.285156 -20.636719 "/></g></g></g><g fill="#5e17eb" fill-opacity="1"><g transform="translate(177.652104, 185.428728)"><g><path d="M 14.597656 -26.886719 C 12.234375 -26.886719 10.242188 -26.574219 8.507812 -25.941406 C 10.765625 -32.769531 14.808594 -34.503906 17.855469 -35.238281 C 6.460938 -34.976562 0.523438 -23.421875 0.523438 -15.019531 C 0.523438 -6.667969 4.464844 0 14.597656 0 C 24.734375 0 28.832031 -6.039062 28.832031 -13.445312 C 28.832031 -20.847656 24.734375 -26.886719 14.597656 -26.886719 Z M 14.597656 -1.574219 C 8.246094 -1.574219 6.878906 -6.511719 6.773438 -12.761719 C 6.617188 -23 10.449219 -25.890625 14.597656 -25.890625 C 21.269531 -25.890625 22.582031 -20.429688 22.582031 -13.757812 C 22.582031 -7.035156 21.269531 -1.574219 14.597656 -1.574219 Z M 14.597656 -1.574219 "/></g></g></g><g fill="#5e17eb" fill-opacity="1"><g transform="translate(207.006174, 185.428728)"><g><path d="M 14.023438 -35.132812 C 3.9375 -35.132812 0.523438 -27.253906 0.523438 -17.539062 C 0.523438 -7.878906 3.9375 0.0507812 14.023438 0.0507812 C 24.15625 0.0507812 27.726562 -7.878906 27.726562 -17.539062 C 27.726562 -27.253906 24.15625 -35.132812 14.023438 -35.132812 Z M 14.023438 -2.046875 C 7.40625 -2.046875 6.773438 -9.136719 6.773438 -17.90625 C 6.773438 -26.675781 7.40625 -33.820312 14.023438 -33.820312 C 20.691406 -33.820312 21.425781 -26.675781 21.425781 -17.90625 C 21.425781 -9.136719 20.691406 -2.046875 14.023438 -2.046875 Z M 14.023438 -2.046875 "/></g></g></g><g fill="#5e17eb" fill-opacity="1"><g transform="translate(235.257492, 185.428728)"><g><path d="M 6.984375 -43.113281 C 3.414062 -43.113281 0.523438 -40.226562 0.523438 -36.65625 C 0.523438 -33.085938 3.414062 -30.144531 6.984375 -30.144531 C 10.554688 -30.144531 13.496094 -33.085938 13.496094 -36.65625 C 13.496094 -40.226562 10.554688 -43.113281 6.984375 -43.113281 Z M 6.984375 -33.347656 C 5.144531 -33.347656 3.675781 -34.816406 3.675781 -36.65625 C 3.675781 -38.441406 5.144531 -39.964844 6.984375 -39.964844 C 8.824219 -39.964844 10.292969 -38.441406 10.292969 -36.65625 C 10.292969 -34.816406 8.824219 -33.347656 6.984375 -33.347656 Z M 6.984375 -33.347656 "/></g></g></g><g fill="#5e17eb" fill-opacity="1"><g transform="translate(249.278129, 185.428728)"><g><path d="M 2.257812 -23.054688 L 0.523438 -21.269531 L 4.148438 -17.644531 L 0.523438 -13.96875 L 2.257812 -12.183594 L 7.667969 -17.644531 Z M 2.257812 -23.054688 "/></g></g></g></svg>